<?xml version="1.0" standalone="no"?>
<!DOCTYPE svg PUBLIC "-//W3C//DTD SVG 20010904//EN"
 "http://www.w3.org/TR/2001/REC-SVG-20010904/DTD/svg10.dtd">
<svg version="1.0" xmlns="http://www.w3.org/2000/svg"
 width="320.000000pt" height="320.000000pt" viewBox="0 0 320.000000 320.000000"
 preserveAspectRatio="xMidYMid meet">
<metadata>
Created by potrace 1.11, written by Peter Selinger 2001-2013
</metadata>
<g transform="translate(0.000000,320.000000) scale(0.100000,-0.100000)"
fill="#000000" stroke="none">
<path d="M1407 2660 c-107 -28 -154 -76 -195 -202 -29 -91 -44 -102 -88 -73
-14 9 -35 37 -45 61 -19 42 -22 44 -64 44 -95 0 -97 -18 -9 -85 84 -64 164
-149 164 -172 0 -12 -24 -34 -64 -61 -83 -54 -186 -167 -225 -246 -52 -106
-64 -179 -58 -366 5 -199 31 -310 107 -465 112 -229 285 -364 602 -468 299
-99 579 -139 705 -102 151 45 175 156 108 498 -19 98 -46 265 -60 370 -32 235
-55 346 -93 435 -97 230 -309 394 -550 422 l-67 7 73 2 c140 2 412 60 412 87
0 18 -69 103 -130 157 -66 60 -155 109 -244 136 -79 24 -223 35 -279 21z m-51
-354 c39 -14 96 -30 125 -35 30 -5 45 -9 34 -10 -109 -7 -255 -22 -268 -27
-20 -7 -72 68 -63 92 9 22 81 14 172 -20z"/>
</g>
</svg>
